<?xml version="1.0" encoding="UTF-8"?>
<svg width="107px" height="33px" viewBox="0 0 107 33" version="1.1" xmlns="http://www.w3.org/2000/svg" xmlns:xlink="http://www.w3.org/1999/xlink">
    <title>Letter@1x</title>
    <g id="Letter" stroke="none" stroke-width="1" fill="none" fill-rule="evenodd">
        <g id="Y" transform="translate(29.3376, 8.7482)" fill="#282642" fill-rule="nonzero">
            <path d="M10.224,1.44376471 C10.288,1.99843137 10.16,2.35043137 9.84,2.49976471 C9.65866667,2.58509804 9.57333333,2.62776471 9.584,2.62776471 C8.96533333,3.57709804 8.14933333,5.24643137 7.136,7.63576471 C6.18666667,9.89709804 5.69066667,11.257098 5.648,11.7157647 C5.63733333,11.801098 5.65866667,11.9504314 5.712,12.1637647 C5.76533333,12.377098 5.78666667,12.553098 5.776,12.6917647 C5.712,13.417098 5.53066667,13.8064314 5.232,13.8597647 C5.08266667,13.881098 4.712,13.801098 4.12,13.6197647 C3.528,13.4384314 3.13066667,13.2837647 2.928,13.1557647 C2.56533333,12.8997647 2.384,12.6437647 2.384,12.3877647 C2.384,12.2597647 2.42133333,12.1157647 2.496,11.9557647 C2.64533333,11.5397647 2.96,10.6864314 3.44,9.39576471 C2.55466667,7.57176471 1.95733333,6.31309804 1.648,5.61976471 C1.02933333,4.23309804 0.592,3.09709804 0.336,2.21176471 C0.314666667,2.15843137 0.253333333,2.07843137 0.152,1.97176471 C0.0506666667,1.86509804 -2.84217094e-14,1.76909804 -2.84217094e-14,1.68376471 C-2.84217094e-14,1.52376471 0.208,1.28376471 0.624,0.963764706 C1.50933333,0.281098039 2.11733333,-0.0389019608 2.448,0.00376470588 C2.61866667,0.0250980392 2.77333333,0.137098039 2.912,0.339764706 C3.02933333,0.499764706 3.09866667,0.643764706 3.12,0.771764706 C3.12,0.974431373 3.152,1.29976471 3.216,1.74776471 C3.46133333,3.07043137 3.97333333,4.50509804 4.752,6.05176471 C5.34933333,4.59043137 5.68533333,3.78509804 5.76,3.63576471 C6.16533333,2.72909804 6.624,1.88109804 7.136,1.09176471 C7.17866667,0.921098039 7.25333333,0.702431373 7.36,0.435764706 C7.57333333,0.190431373 7.86133333,0.0890980392 8.224,0.131764706 C8.48,0.163764706 8.872,0.350431373 9.4,0.691764706 C9.928,1.03309804 10.2026667,1.28376471 10.224,1.44376471 Z" id="Path"></path>
        </g>
        <rect id="Rectangle" fill="#FF4C60" x="41" y="18" width="4" height="4" rx="1"></rect>
    </g>
</svg>